ibm2403
version=1
nRows=58
nColumns=19
inDegrees=yes
endheader
time	ground_force1_vx	ground_force1_vy	ground_force1_vz	ground_force1_px	ground_force1_py	ground_force1_pz	ground_torque1_x	ground_torque1_y	ground_torque1_z	ground_force2_vx	ground_force2_vy	ground_force2_vz	ground_force2_px	ground_force2_py	ground_force2_pz	ground_torque2_x	ground_torque2_y	ground_torque2_z
0.000000	14.788208	223.455811	-1.441343	0.200309	0.000000	-0.033129	-0.000003	2.013754	0.000003	-29.713131	298.632202	-5.636288	-0.157029	0.000000	-0.061125	0.000000	-2.549197	0.000001	
0.001000	14.788208	227.728271	-1.136167	0.200438	0.000000	-0.037045	0.000000	1.849083	0.000005	-31.239010	299.242554	-4.415585	-0.157830	0.000000	-0.057737	-0.000001	-3.136562	-0.000001	
0.002000	17.534790	221.624756	-2.662046	0.199073	0.000000	-0.031759	-0.000004	2.734587	0.000003	-32.459713	298.632202	-5.941463	-0.157437	0.000000	-0.059286	-0.000002	-3.178015	-0.000000	
0.003000	14.177856	228.338623	-1.746518	0.200837	0.000000	-0.036676	-0.000001	1.786948	0.000002	-31.849361	295.580444	-6.246639	-0.158340	0.000000	-0.055975	-0.000005	-3.205501	0.000000	
0.004000	16.619263	227.728271	-3.272398	0.198294	0.000000	-0.034633	0.000001	2.194896	0.000001	-29.713131	292.528687	-6.246639	-0.157593	0.000000	-0.057602	0.000000	-2.936363	-0.000000	
0.005000	16.924438	224.066162	-2.356870	0.202352	0.000000	-0.030312	-0.000001	2.283534	0.000001	-30.933834	295.580444	-5.025936	-0.157101	0.000000	-0.059072	0.000002	-2.961419	0.000001	
0.006000	12.957153	225.286865	-3.272398	0.196650	0.000000	-0.031226	-0.000003	1.357071	0.000003	-29.407955	289.476929	-6.856991	-0.156829	0.000000	-0.056101	-0.000003	-2.661796	-0.000004	
0.007000	16.619263	227.117920	-3.882749	0.202186	0.000000	-0.033385	-0.000002	2.168672	0.000000	-30.628658	293.139038	-6.551815	-0.156744	0.000000	-0.057898	0.000002	-3.054408	0.000002	
0.008000	16.924438	229.559326	-2.967222	0.199504	0.000000	-0.035147	-0.000003	1.401246	0.000003	-30.628658	288.866577	-7.772518	-0.158111	0.000000	-0.054529	0.000003	-3.176472	-0.000001	
0.009000	17.839966	228.338623	-2.967222	0.201907	0.000000	-0.031063	-0.000003	2.455214	0.000002	-31.544186	290.697632	-6.551815	-0.157640	0.000000	-0.054815	0.000001	-2.921422	-0.000003	
0.010000	14.788208	235.052490	-4.798276	0.197308	0.000000	-0.036639	-0.000000	1.567022	0.000002	-31.849361	290.087280	-7.467342	-0.158498	0.000000	-0.059559	-0.000001	-3.011135	-0.000005	
0.011000	16.314087	227.728271	-5.408628	0.198830	0.000000	-0.030613	-0.000003	2.316388	0.000005	-32.154537	288.866577	-7.162167	-0.157266	0.000000	-0.054529	0.000003	-3.112782	-0.000002	
0.012000	16.619263	235.052490	-7.239683	0.198866	0.000000	-0.035860	-0.000002	2.004038	0.000004	-31.239010	288.866577	-8.382870	-0.157266	0.000000	-0.057064	0.000000	-2.909262	-0.000002	
0.013000	16.924438	235.052490	-6.629331	0.198866	0.000000	-0.033523	-0.000001	1.331130	0.000004	-30.933834	292.528687	-8.077694	-0.157593	0.000000	-0.061357	-0.000002	-2.824810	-0.000000	
0.014000	16.924438	233.221436	-7.850034	0.200297	0.000000	-0.035364	-0.000004	2.011717	0.000002	-30.323483	285.204468	-8.077694	-0.157360	0.000000	-0.060365	0.000001	-2.585293	-0.000005	
0.015000	17.534790	238.104248	-7.850034	0.199778	0.000000	-0.033337	-0.000002	1.868412	0.000003	-30.628658	285.814819	-8.688046	-0.157771	0.000000	-0.056179	-0.000002	-2.947299	-0.000004	
0.016000	18.145142	236.883545	-8.155210	0.197973	0.000000	-0.030937	-0.000002	1.921986	0.000000	-30.323483	282.763062	-9.603573	-0.156991	0.000000	-0.059807	0.000003	-2.793015	-0.000005	
0.017000	18.755493	239.935303	-9.070737	0.199907	0.000000	-0.033075	-0.000003	2.137485	0.000005	-31.239010	281.542358	-10.213924	-0.157022	0.000000	-0.056598	-0.000002	-2.934646	0.000001	
0.018000	17.839966	242.376709	-9.070737	0.197893	0.000000	-0.030969	-0.000005	1.913329	0.000003	-30.628658	280.932007	-8.993221	-0.157472	0.000000	-0.053679	-0.000002	-3.023541	-0.000004	
0.019000	20.281372	240.545654	-8.155210	0.199780	0.000000	-0.031212	-0.000001	2.198614	0.000002	-29.407955	279.100952	-9.603573	-0.157521	0.000000	-0.055999	0.000003	-2.690168	-0.000002	
0.020000	18.145142	239.935303	-10.291440	0.198380	0.000000	-0.026970	0.000001	1.734441	0.000003	-29.407955	276.659546	-9.908749	-0.157146	0.000000	-0.054729	-0.000003	-2.634567	-0.000000	
0.021000	19.671021	244.207764	-9.681088	0.199034	0.000000	-0.030729	-0.000005	1.991333	-0.000001	-30.628658	283.373413	-9.603573	-0.156976	0.000000	-0.060755	-0.000002	-2.898167	-0.000003	
0.022000	19.365845	247.259521	-9.681088	0.197935	0.000000	-0.032065	-0.000000	1.628805	0.000002	-30.018307	277.269897	-9.298397	-0.156249	0.000000	-0.055048	-0.000000	-2.975597	-0.000005	
0.023000	19.671021	250.311279	-13.038022	0.195887	0.000000	-0.033369	-0.000001	1.147453	0.000005	-29.102779	276.049194	-9.603573	-0.157162	0.000000	-0.053081	-0.000002	-2.453055	-0.000003	
0.024000	19.976196	253.973389	-12.122495	0.198109	0.000000	-0.035757	-0.000006	1.684535	0.000002	-29.102779	271.776733	-10.213924	-0.157274	0.000000	-0.051445	0.000001	-2.689290	-0.000002	
0.025000	20.281372	247.869873	-13.648374	0.199294	0.000000	-0.029522	-0.000000	1.767296	0.000003	-30.018307	273.607788	-10.519100	-0.157225	0.000000	-0.057124	-0.000003	-3.388960	-0.000002	
0.026000	21.807251	250.921631	-12.732846	0.199181	0.000000	-0.031583	0.000000	2.117486	0.000002	-29.102779	271.776733	-10.213924	-0.157274	0.000000	-0.055487	-0.000001	-2.663198	-0.000002	
0.027000	21.196899	255.194092	-13.953549	0.198358	0.000000	-0.030798	-0.000002	1.897376	0.000001	-29.102779	265.062866	-11.129452	-0.158379	0.000000	-0.052518	0.000001	-2.860136	-0.000004	
0.028000	21.807251	257.025146	-13.038022	0.196113	0.000000	-0.034846	-0.000004	1.563574	0.000003	-28.492428	266.283569	-10.519100	-0.157883	0.000000	-0.056632	0.000001	-2.367895	-0.000001	
0.029000	22.417603	254.583740	-13.343198	0.196076	0.000000	-0.029676	-0.000004	1.884801	0.000004	-29.102779	261.400757	-10.519100	-0.157563	0.000000	-0.055355	-0.000001	-2.580756	0.000001	
0.030000	22.722778	253.973389	-13.953549	0.198590	0.000000	-0.029990	-0.000004	1.809434	0.000005	-29.102779	263.231812	-12.044979	-0.157510	0.000000	-0.060535	-0.000001	-2.624022	-0.000005	
0.031000	22.722778	253.363037	-16.394957	0.197262	0.000000	-0.029583	-0.000001	2.098641	0.000000	-28.187252	260.180054	-12.655331	-0.157598	0.000000	-0.056084	0.000002	-2.352836	-0.000002	
0.032000	23.333130	260.076904	-17.310484	0.197450	0.000000	-0.031140	-0.000001	1.937574	0.000002	-28.187252	259.569702	-13.265682	-0.157616	0.000000	-0.058567	-0.000002	-2.562373	-0.000002	
0.033000	25.469360	260.076904	-19.141539	0.196042	0.000000	-0.033252	-0.000003	2.576955	-0.000001	-28.187252	257.738647	-12.655331	-0.157670	0.000000	-0.053300	-0.000000	-2.523776	-0.000002	
0.034000	24.553833	249.700928	-17.005308	0.198444	0.000000	-0.024898	-0.000001	2.115061	0.000004	-26.356197	254.686890	-11.434628	-0.157762	0.000000	-0.047947	-0.000001	-2.754131	-0.000002	
0.035000	24.553833	258.856201	-18.226011	0.195316	0.000000	-0.029641	-0.000000	1.909173	0.000007	-28.187252	254.686890	-12.044979	-0.157283	0.000000	-0.056574	-0.000001	-2.696780	-0.000002	
0.036000	22.722778	258.856201	-19.141539	0.198145	0.000000	-0.027519	0.000001	1.559829	0.000001	-27.882076	254.686890	-10.519100	-0.157283	0.000000	-0.058731	-0.000001	-2.307102	-0.000002	
0.037000	23.027954	257.635498	-17.920835	0.198847	0.000000	-0.028838	-0.000001	1.535581	0.000003	-27.576900	249.804077	-12.960506	-0.157914	0.000000	-0.053038	-0.000003	-2.538506	-0.000002	
0.038000	25.469360	258.856201	-20.057066	0.196259	0.000000	-0.027519	0.000001	2.037061	0.000004	-27.576900	247.973022	-11.129452	-0.156988	0.000000	-0.050476	-0.000003	-2.950571	-0.000002	
0.039000	26.079712	259.466553	-22.193296	0.197091	0.000000	-0.028628	-0.000001	1.863877	0.000006	-27.271725	248.583374	-12.655331	-0.158444	0.000000	-0.049370	0.000001	-2.506429	-0.000003	
0.040000	25.164185	260.687256	-22.193296	0.195934	0.000000	-0.027318	0.000001	1.806720	0.000004	-28.187252	247.362671	-12.960506	-0.157992	0.000000	-0.053068	-0.000003	-2.536818	0.000001	
0.041000	28.215942	250.311279	-18.226011	0.194912	0.000000	-0.024591	-0.000003	2.115198	-0.000000	-26.356197	246.141968	-9.908749	-0.158032	0.000000	-0.058290	-0.000002	-2.380793	-0.000003	
0.042000	25.164185	257.635498	-20.972593	0.197899	0.000000	-0.026706	0.000000	1.624170	0.000002	-27.576900	242.479858	-12.044979	-0.157650	0.000000	-0.050864	-0.000002	-2.588018	-0.000003	
0.043000	26.690063	255.804443	-23.108824	0.196811	0.000000	-0.026905	-0.000001	1.684283	0.000003	-26.966549	243.700562	-10.519100	-0.157611	0.000000	-0.053114	-0.000001	-2.698908	-0.000005	
0.044000	27.300415	255.804443	-23.108824	0.200151	0.000000	-0.026189	-0.000002	1.977609	0.000002	-26.661373	240.648804	-12.350155	-0.157200	0.000000	-0.059621	-0.000002	-2.397908	-0.000001	
0.045000	27.910767	257.025146	-24.634703	0.195638	0.000000	-0.028434	-0.000002	2.077320	0.000000	-26.051022	236.986694	-9.908749	-0.157312	0.000000	-0.055134	-0.000000	-2.412646	-0.000000	
0.046000	26.384888	256.414795	-24.024351	0.196699	0.000000	-0.025886	-0.000001	1.790370	0.000005	-25.745846	239.428101	-11.129452	-0.156727	0.000000	-0.056611	-0.000001	-2.332827	-0.000001	
0.047000	26.995239	256.414795	-23.719175	0.196699	0.000000	-0.027314	-0.000002	1.751672	0.000005	-25.135494	235.155640	-10.519100	-0.156850	0.000000	-0.055563	0.000001	-2.177274	-0.000003	
0.048000	26.384888	253.363037	-25.550230	0.196780	0.000000	-0.025969	-0.000004	1.953054	0.000004	-25.135494	234.545288	-11.434628	-0.158429	0.000000	-0.054407	-0.000002	-2.139121	-0.000001	
0.049000	26.690063	255.194092	-25.550230	0.196923	0.000000	-0.027928	-0.000002	1.591006	0.000001	-25.135494	236.986694	-10.519100	-0.156797	0.000000	-0.058997	0.000001	-2.090405	-0.000002	
0.050000	28.521118	249.700928	-26.465757	0.197466	0.000000	-0.024898	-0.000001	2.139563	0.000006	-23.914791	230.272827	-12.044979	-0.156995	0.000000	-0.058862	-0.000000	-1.842722	-0.000003	
0.051000	25.774536	250.921631	-26.465757	0.198208	0.000000	-0.025015	-0.000003	1.769547	0.000003	-22.999264	232.103882	-10.824276	-0.156940	0.000000	-0.055242	-0.000000	-2.153837	-0.000000	
0.052000	27.605591	252.142334	-26.160582	0.195554	0.000000	-0.027310	-0.000004	1.482869	0.000001	-23.914791	232.103882	-11.129452	-0.157992	0.000000	-0.051297	-0.000000	-2.119865	-0.000003	
0.053000	26.690063	250.311279	-27.076109	0.195400	0.000000	-0.026054	-0.000001	1.579833	0.000006	-25.440670	230.883179	-10.824276	-0.158034	0.000000	-0.056063	-0.000002	-2.406660	-0.000002	
0.054000	28.521118	247.259521	-27.381285	0.195466	0.000000	-0.023919	0.000000	1.789960	0.000001	-24.525143	230.272827	-9.603573	-0.159115	0.000000	-0.054886	0.000001	-2.395871	-0.000000	
0.055000	25.774536	246.038818	-29.517515	0.196684	0.000000	-0.024539	-0.000003	1.517740	0.000004	-22.694088	229.662476	-10.213924	-0.157545	0.000000	-0.050514	-0.000001	-2.218904	-0.000002	
0.056000	26.995239	244.818115	-28.907164	0.196418	0.000000	-0.022921	-0.000003	1.463541	0.000002	-21.473385	229.052124	-9.298397	-0.158631	0.000000	-0.056511	-0.000002	-2.093948	0.000001	
0.057000	26.079712	249.090576	-28.296812	0.194152	0.000000	-0.026677	-0.000004	1.203492	0.000003	-24.219967	229.052124	-9.298397	-0.158631	0.000000	-0.052514	-0.000003	-2.310202	0.000001	
